<svg xmlns="http://www.w3.org/2000/svg" width="1600" height="900" viewBox="0 0 1600 900">
  <defs>
    <linearGradient id="bg" x1="0" y1="0" x2="1" y2="1">
      <stop offset="0%" stop-color="#ffcf99" />
      <stop offset="50%" stop-color="#f56a6a" />
      <stop offset="100%" stop-color="#3f2b96" />
    </linearGradient>
    <radialGradient id="glow" cx="0.3" cy="0.2" r="0.7">
      <stop offset="0%" stop-color="#ffffff" stop-opacity="0.9" />
      <stop offset="100%" stop-color="#ffffff" stop-opacity="0" />
    </radialGradient>
  </defs>
  <rect width="1600" height="900" fill="url(#bg)" />
  <rect width="1600" height="900" fill="url(#glow)" />
  <g opacity="0.8">
    <circle cx="120" cy="120" r="90" fill="#ffe6c7" />
    <circle cx="320" cy="260" r="120" fill="#ffb28f" />
    <circle cx="540" cy="120" r="100" fill="#ffd6d6" />
    <circle cx="780" cy="220" r="140" fill="#ffe7b8" />
    <circle cx="1020" cy="130" r="110" fill="#f9d29d" />
    <circle cx="1260" cy="240" r="130" fill="#f6c6ea" />
    <circle cx="1480" cy="120" r="90" fill="#ffe6a7" />
    <circle cx="160" cy="520" r="140" fill="#fef6d1" />
    <circle cx="380" cy="610" r="110" fill="#ffe8f1" />
    <circle cx="620" cy="520" r="150" fill="#d7f5ff" />
    <circle cx="860" cy="620" r="130" fill="#ffd5c2" />
    <circle cx="1120" cy="520" r="160" fill="#f4e8ff" />
    <circle cx="1380" cy="610" r="120" fill="#fff0d8" />
    <circle cx="1540" cy="520" r="100" fill="#d0f0ff" />
  </g>
  <g opacity="0.45">
    <rect x="80" y="340" width="220" height="220" fill="#ffffff" />
    <rect x="420" y="340" width="240" height="240" fill="#ffffff" />
    <rect x="760" y="340" width="240" height="240" fill="#ffffff" />
    <rect x="1100" y="340" width="240" height="240" fill="#ffffff" />
    <rect x="1420" y="340" width="140" height="240" fill="#ffffff" />
  </g>
</svg>
